
<svg version="1.0" xmlns="http://www.w3.org/2000/svg"
     width="1024.000000pt" height="1024.000000pt" viewBox="0 0 1024.000000 1024.000000"
     preserveAspectRatio="xMidYMid meet">

  <g transform="translate(0.000000,1024.000000) scale(0.100000,-0.100000)"
     fill="#000000" stroke="none">
    <path d="M3141 9341 c-253 -64 -461 -269 -537 -530 -13 -43 -18 -120 -23 -326
l-6 -270 -55 -11 c-98 -19 -152 -62 -179 -143 -16 -50 -15 -1009 1 -1065 16
-53 84 -121 134 -135 26 -7 292 -11 805 -11 l765 0 53 26 c38 19 62 40 82 72
l29 46 0 533 c0 513 -1 535 -20 573 -11 21 -36 51 -57 67 l-36 28 -606 5 -606
5 -2 190 c-1 105 3 224 8 265 45 360 472 517 732 271 99 -93 137 -193 137
-359 0 -57 5 -112 10 -123 10 -17 22 -19 146 -19 l134 0 11 28 c15 36 4 257
-16 339 -59 245 -250 451 -490 530 -109 35 -303 42 -414 14z m224 -1520 c74
-33 125 -113 125 -197 0 -42 -46 -130 -81 -155 l-29 -20 0 -138 c0 -93 -4
-141 -12 -149 -7 -7 -40 -12 -79 -12 -98 0 -99 2 -99 166 l0 135 -30 26 c-46
38 -70 93 -70 159 0 147 145 244 275 185z"/>
    <path d="M4858 8526 c-60 -21 -115 -72 -145 -134 l-28 -57 0 -440 0 -440 23
-47 c13 -26 44 -66 69 -88 82 -71 65 -70 822 -70 430 0 689 4 713 10 62 18
128 71 162 130 30 54 31 58 34 208 l4 153 237 -3 238 -3 49 -30 c30 -19 60
-49 79 -79 l30 -49 3 -546 c2 -482 1 -551 -13 -588 -20 -52 -102 -129 -153
-143 -24 -7 -198 -10 -507 -8 l-470 3 -5 100 c-7 114 -25 161 -86 215 -79 69
-35 65 -809 65 l-700 0 -51 -27 c-101 -53 -144 -137 -144 -279 l0 -78 -477 -3
c-467 -3 -479 -4 -538 -26 -130 -49 -252 -157 -309 -275 -56 -115 -57 -126
-54 -734 3 -555 3 -558 26 -623 60 -166 182 -290 349 -353 55 -20 79 -22 413
-27 l355 -5 5 -135 c5 -125 7 -139 33 -182 15 -26 42 -59 60 -72 74 -57 63
-56 781 -56 l661 0 50 24 c63 29 102 68 131 131 21 44 24 65 24 173 l0 122
418 0 c272 0 431 -4 457 -11 85 -24 145 -120 145 -233 0 -60 13 -66 147 -66
150 0 146 -4 142 146 -4 113 -6 123 -40 194 -61 126 -145 204 -275 252 -57 22
-73 22 -526 26 l-468 3 0 92 c0 106 -22 168 -81 226 -75 74 -35 71 -789 71
-632 0 -678 -2 -715 -19 -60 -27 -101 -66 -129 -123 -23 -45 -26 -65 -26 -150
l0 -98 -327 0 c-311 0 -329 1 -370 21 -53 26 -119 99 -133 148 -6 22 -10 236
-10 551 0 579 -2 557 76 632 71 67 76 68 559 68 l433 0 4 -132 c3 -125 5 -136
33 -187 37 -67 100 -116 168 -131 36 -8 255 -10 727 -8 671 3 675 3 716 25 45
24 109 90 126 131 7 15 14 88 17 162 l6 135 510 5 c565 6 552 5 670 75 84 51
168 137 210 216 65 125 66 134 63 778 -3 561 -4 577 -25 633 -59 156 -185 283
-338 340 -56 21 -79 23 -322 26 l-263 3 0 123 c0 145 -15 204 -65 263 -19 23
-58 53 -87 67 l-52 26 -705 0 c-557 -1 -714 -4 -743 -14z m1340 -627 l-3 -331
-505 0 c-278 0 -547 1 -597 1 l-93 1 0 330 0 330 600 0 600 0 -2 -331z m-498
-1794 l0 -274 -590 0 -590 -1 0 275 0 275 590 0 590 0 0 -275z m-290 -1715 l0
-270 -560 2 -561 3 0 218 c0 119 1 240 1 267 l0 50 560 0 560 0 0 -270z"/>
    <path d="M5140 8211 c0 -5 7 -12 16 -15 14 -5 15 -4 4 9 -14 17 -20 19 -20 6z"/>
    <path d="M5890 8209 c0 -5 4 -8 9 -5 5 3 11 -1 14 -8 3 -8 1 -17 -6 -19 -7 -2
0 -4 14 -4 l26 0 -22 23 c-24 26 -35 30 -35 13z"/>
    <path d="M5980 8210 c-13 -8 -12 -10 3 -10 9 0 17 5 17 10 0 12 -1 12 -20 0z"/>
    <path d="M6140 8216 c0 -2 9 -6 20 -9 11 -3 20 -1 20 4 0 5 -9 9 -20 9 -11 0
-20 -2 -20 -4z"/>
    <path d="M6083 8195 c0 -8 4 -12 9 -9 4 3 8 9 8 15 0 5 -4 9 -8 9 -5 0 -9 -7
-9 -15z"/>
    <path d="M5080 8192 c0 -5 7 -9 15 -9 8 0 12 4 9 9 -3 4 -9 8 -15 8 -5 0 -9
-4 -9 -8z"/>
    <path d="M5206 8191 c-4 -7 -5 -15 -2 -18 9 -9 19 4 14 18 -4 11 -6 11 -12 0z"/>
    <path d="M5780 8190 c-9 -6 -10 -10 -3 -10 6 0 15 5 18 10 8 12 4 12 -15 0z"/>
    <path d="M5126 8173 c-6 -14 -5 -15 5 -6 7 7 10 15 7 18 -3 3 -9 -2 -12 -12z"/>
    <path d="M5715 8179 c-4 -6 -5 -12 -2 -15 2 -3 7 2 10 11 7 17 1 20 -8 4z"/>
    <path d="M5088 8163 c7 -3 16 -2 19 1 4 3 -2 6 -13 5 -11 0 -14 -3 -6 -6z"/>
    <path d="M5395 8161 c-3 -5 -2 -12 3 -15 5 -3 9 1 9 9 0 17 -3 19 -12 6z"/>
    <path d="M5451 8153 c7 -12 15 -20 18 -17 3 2 -3 12 -13 22 -17 16 -18 16 -5
-5z"/>
    <path d="M5521 8161 c-8 -5 -9 -11 -3 -15 5 -3 12 1 16 9 6 17 6 18 -13 6z"/>
    <path d="M5887 8159 c7 -7 15 -10 18 -7 3 3 -2 9 -12 12 -14 6 -15 5 -6 -5z"/>
    <path d="M5760 8146 c0 -2 7 -6 15 -10 8 -3 15 -1 15 4 0 6 -7 10 -15 10 -8 0
-15 -2 -15 -4z"/>
    <path d="M5013 8125 c-3 -9 -3 -18 -1 -21 3 -3 8 4 11 16 6 23 -1 27 -10 5z"/>
    <path d="M5260 8126 c7 -7 14 -6 21 1 9 9 7 12 -9 10 -14 -1 -18 -5 -12 -11z"/>
    <path d="M5430 8129 c0 -5 5 -7 10 -4 6 3 10 8 10 11 0 2 -4 4 -10 4 -5 0 -10
-5 -10 -11z"/>
    <path d="M5839 8138 c-5 -19 -8 -50 -4 -46 7 7 15 48 9 48 -2 0 -4 -1 -5 -2z"/>
    <path d="M5869 8123 c-13 -16 -12 -17 4 -4 9 7 17 15 17 17 0 8 -8 3 -21 -13z"/>
    <path d="M5218 8123 c7 -3 16 -2 19 1 4 3 -2 6 -13 5 -11 0 -14 -3 -6 -6z"/>
    <path d="M5696 8113 c-6 -14 -5 -15 5 -6 7 7 10 15 7 18 -3 3 -9 -2 -12 -12z"/>
    <path d="M6080 8120 c0 -5 5 -10 11 -10 5 0 7 5 4 10 -3 6 -8 10 -11 10 -2 0
-4 -4 -4 -10z"/>
    <path d="M5090 8116 c0 -2 7 -7 16 -10 8 -3 12 -2 9 4 -6 10 -25 14 -25 6z"/>
    <path d="M5460 8109 c0 -5 5 -7 10 -4 6 3 10 8 10 11 0 2 -4 4 -10 4 -5 0 -10
-5 -10 -11z"/>
    <path d="M5998 8103 c6 -2 10 -8 7 -13 -3 -4 2 -11 10 -14 13 -4 14 -2 5 14
-6 11 -16 20 -23 19 -9 0 -9 -2 1 -6z"/>
    <path d="M5136 8087 c3 -10 9 -15 12 -12 3 3 0 11 -7 18 -10 9 -11 8 -5 -6z"/>
    <path d="M5611 8083 c7 -12 15 -20 18 -17 3 2 -3 12 -13 22 -17 16 -18 16 -5
-5z"/>
    <path d="M5012 8070 c0 -14 2 -19 5 -12 2 6 2 18 0 25 -3 6 -5 1 -5 -13z"/>
    <path d="M5170 8080 c0 -5 5 -10 11 -10 5 0 7 5 4 10 -3 6 -8 10 -11 10 -2 0
-4 -4 -4 -10z"/>
    <path d="M5710 8081 c0 -6 4 -13 10 -16 6 -3 7 1 4 9 -7 18 -14 21 -14 7z"/>
    <path d="M5960 8080 c-9 -6 -10 -10 -3 -10 6 0 15 5 18 10 8 12 4 12 -15 0z"/>
    <path d="M5373 8056 c0 -14 6 -27 14 -30 9 -4 11 -2 6 7 -4 6 -8 18 -9 25 -4
25 -11 23 -11 -2z"/>
    <path d="M5437 8055 c-4 -8 -3 -16 1 -19 4 -3 9 4 9 15 2 23 -3 25 -10 4z"/>
    <path d="M5640 8056 c0 -2 8 -10 18 -17 15 -13 16 -12 3 4 -13 16 -21 21 -21
13z"/>
    <path d="M5985 8051 c-3 -5 -2 -12 3 -15 5 -3 9 1 9 9 0 17 -3 19 -12 6z"/>
    <path d="M5750 8041 c0 -8 -7 -11 -17 -6 -15 5 -16 4 -5 -6 9 -10 15 -10 24
-1 6 6 9 15 5 19 -4 3 -7 1 -7 -6z"/>
    <path d="M5864 8038 c3 -15 26 -23 26 -8 0 6 -4 9 -9 6 -5 -4 -12 -1 -14 4 -3
6 -4 5 -3 -2z"/>
    <path d="M6155 8040 c4 -6 11 -8 16 -5 14 9 11 15 -7 15 -8 0 -12 -5 -9 -10z"/>
    <path d="M5421 8014 c0 -11 3 -14 6 -6 3 7 2 16 -1 19 -3 4 -6 -2 -5 -13z"/>
    <path d="M6141 8004 c0 -11 3 -14 6 -6 3 7 2 16 -1 19 -3 4 -6 -2 -5 -13z"/>
    <path d="M5240 8001 c0 -6 4 -13 10 -16 6 -3 7 1 4 9 -7 18 -14 21 -14 7z"/>
    <path d="M5685 7999 c-4 -6 -5 -12 -2 -15 2 -3 7 2 10 11 7 17 1 20 -8 4z"/>
    <path d="M5324 7984 c-18 -14 -18 -15 4 -4 12 6 22 13 22 15 0 8 -5 6 -26 -11z"/>
    <path d="M5476 7992 c-3 -5 1 -9 9 -9 8 0 12 4 9 9 -3 4 -7 8 -9 8 -2 0 -6 -4
-9 -8z"/>
    <path d="M5524 7980 c0 -13 4 -16 10 -10 7 7 7 13 0 20 -6 6 -10 3 -10 -10z"/>
    <path d="M5640 7991 c0 -10 19 -25 25 -20 1 2 -3 10 -11 17 -8 7 -14 8 -14 3z"/>
    <path d="M5720 7996 c0 -4 7 -14 15 -22 8 -9 15 -11 15 -6 0 5 -7 15 -15 22
-8 7 -15 9 -15 6z"/>
    <path d="M5819 7983 c-13 -16 -12 -17 4 -4 9 7 17 15 17 17 0 8 -8 3 -21 -13z"/>
    <path d="M6057 7980 c3 -11 7 -20 9 -20 2 0 4 9 4 20 0 11 -4 20 -9 20 -5 0
-7 -9 -4 -20z"/>
    <path d="M5370 7980 c-9 -6 -10 -10 -3 -10 6 0 15 5 18 10 8 12 4 12 -15 0z"/>
    <path d="M5786 7973 c-6 -14 -5 -15 5 -6 7 7 10 15 7 18 -3 3 -9 -2 -12 -12z"/>
    <path d="M5144 7969 c-3 -6 -2 -15 3 -20 5 -5 9 -1 9 11 0 23 -2 24 -12 9z"/>
    <path d="M5180 7976 c0 -2 7 -9 15 -16 13 -11 14 -10 9 4 -5 14 -24 23 -24 12z"/>
    <path d="M5424 7958 c0 -16 1 -28 1 -28 0 0 9 10 19 22 15 17 15 20 3 15 -9
-3 -18 -1 -20 6 -2 7 -4 0 -3 -15z"/>
    <path d="M5567 7969 c7 -7 15 -10 18 -7 3 3 -2 9 -12 12 -14 6 -15 5 -6 -5z"/>
    <path d="M6148 7973 c6 -2 18 -2 25 0 6 3 1 5 -13 5 -14 0 -19 -2 -12 -5z"/>
    <path d="M6014 7945 c-3 -8 -4 -20 -2 -27 3 -7 7 -1 10 15 6 29 1 36 -8 12z"/>
    <path d="M5110 7941 c0 -7 -4 -9 -10 -6 -5 3 -10 1 -10 -4 0 -6 4 -11 9 -11
13 0 25 20 17 27 -3 4 -6 1 -6 -6z"/>
    <path d="M5235 7939 c-4 -6 -5 -12 -2 -15 2 -3 7 2 10 11 7 17 1 20 -8 4z"/>
    <path d="M5276 7935 c4 -8 12 -15 19 -15 7 0 16 -6 18 -12 4 -8 6 -9 6 -2 1 7
-10 19 -24 28 -21 14 -24 14 -19 1z"/>
    <path d="M5365 7940 c-3 -6 1 -7 9 -4 18 7 21 14 7 14 -6 0 -13 -4 -16 -10z"/>
    <path d="M5460 7938 c0 -4 4 -8 9 -8 6 0 12 4 15 8 3 5 -1 9 -9 9 -8 0 -15 -4
-15 -9z"/>
    <path d="M5733 7943 c-18 -7 -16 -20 2 -20 8 0 12 4 9 8 -2 4 2 10 8 12 7 3 9
5 3 5 -5 0 -16 -2 -22 -5z"/>
    <path d="M5437 7923 c-4 -3 -7 -11 -7 -17 0 -6 5 -5 12 2 6 6 9 14 7 17 -3 3
-9 2 -12 -2z"/>
    <path d="M6095 7920 c3 -5 8 -10 11 -10 2 0 4 5 4 10 0 6 -5 10 -11 10 -5 0
-7 -4 -4 -10z"/>
    <path d="M5393 7905 c0 -8 4 -15 9 -15 4 0 8 4 8 9 0 6 -4 12 -8 15 -5 3 -9
-1 -9 -9z"/>
    <path d="M5345 7900 c3 -5 8 -10 11 -10 2 0 4 5 4 10 0 6 -5 10 -11 10 -5 0
-7 -4 -4 -10z"/>
    <path d="M5690 7906 c0 -2 7 -7 16 -10 8 -3 12 -2 9 4 -6 10 -25 14 -25 6z"/>
    <path d="M5270 7891 c0 -6 4 -13 10 -16 6 -3 7 1 4 9 -7 18 -14 21 -14 7z"/>
    <path d="M5416 7875 c-3 -8 -1 -15 4 -15 6 0 10 7 10 15 0 8 -2 15 -4 15 -2 0
-6 -7 -10 -15z"/>
    <path d="M5667 7875 c-6 -15 10 -32 20 -21 4 3 1 6 -5 6 -6 0 -9 7 -6 15 4 8
4 15 1 15 -3 0 -7 -7 -10 -15z"/>
    <path d="M5055 7869 c-4 -6 -5 -12 -2 -15 2 -3 7 2 10 11 7 17 1 20 -8 4z"/>
    <path d="M5220 7865 c-9 -10 -9 -15 -1 -15 6 0 11 5 11 10 0 6 5 10 11 10 5 0
7 -5 3 -12 -4 -7 -3 -8 5 -4 12 8 6 26 -8 26 -5 0 -14 -7 -21 -15z"/>
    <path d="M5815 7870 c3 -5 8 -10 11 -10 2 0 4 5 4 10 0 6 -5 10 -11 10 -5 0
-7 -4 -4 -10z"/>
    <path d="M6012 7868 c-7 -7 -12 -16 -12 -21 0 -5 7 -1 16 8 9 9 14 18 12 20
-2 3 -10 -1 -16 -7z"/>
    <path d="M5140 7860 c8 -5 20 -10 25 -10 6 0 3 5 -5 10 -8 5 -19 10 -25 10 -5
0 -3 -5 5 -10z"/>
    <path d="M5510 7861 c0 -6 4 -13 10 -16 6 -3 7 1 4 9 -7 18 -14 21 -14 7z"/>
    <path d="M5854 7851 c20 -22 26 -25 26 -13 0 4 -10 13 -22 21 -23 14 -23 14
-4 -8z"/>
    <path d="M5183 7839 c-2 -23 3 -25 10 -4 4 8 3 16 -1 19 -4 3 -9 -4 -9 -15z"/>
    <path d="M5276 7845 c4 -8 8 -15 10 -15 2 0 4 7 4 15 0 8 -4 15 -10 15 -5 0
-7 -7 -4 -15z"/>
    <path d="M5971 7844 c0 -11 3 -14 6 -6 3 7 2 16 -1 19 -3 4 -6 -2 -5 -13z"/>
    <path d="M5399 7833 c-8 -9 -9 -14 -2 -10 6 4 13 1 16 -5 3 -7 4 -3 4 10 -1
26 -1 26 -18 5z"/>
    <path d="M5785 7840 c-3 -5 -1 -10 4 -10 6 0 11 5 11 10 0 6 -2 10 -4 10 -3 0
-8 -4 -11 -10z"/>
    <path d="M5340 7830 c0 -5 5 -10 11 -10 5 0 7 5 4 10 -3 6 -8 10 -11 10 -2 0
-4 -4 -4 -10z"/>
    <path d="M5546 7826 c3 -8 13 -17 22 -21 13 -5 13 -2 -3 15 -21 24 -26 25 -19
6z"/>
    <path d="M5208 7823 c7 -3 16 -2 19 1 4 3 -2 6 -13 5 -11 0 -14 -3 -6 -6z"/>
    <path d="M6145 7820 c-4 -6 -11 -7 -17 -4 -7 4 -8 2 -4 -4 10 -16 23 -15 30 3
6 17 0 20 -9 5z"/>
    <path d="M5075 7810 c3 -5 8 -10 11 -10 2 0 4 5 4 10 0 6 -5 10 -11 10 -5 0
-7 -4 -4 -10z"/>
    <path d="M5260 7800 c-9 -6 -10 -10 -3 -10 6 0 15 5 18 10 8 12 4 12 -15 0z"/>
    <path d="M5754 7790 c0 -13 4 -16 10 -10 7 7 7 13 0 20 -6 6 -10 3 -10 -10z"/>
    <path d="M5794 7798 c13 -10 17 -21 12 -34 -6 -15 -5 -17 6 -6 14 14 2 43 -23
50 -8 2 -5 -2 5 -10z"/>
    <path d="M6050 7799 c0 -5 5 -7 10 -4 6 3 10 8 10 11 0 2 -4 4 -10 4 -5 0 -10
-5 -10 -11z"/>
    <path d="M5063 7788 c0 -7 6 -19 14 -26 7 -7 13 -9 13 -4 0 4 -6 16 -13 26
-10 14 -14 15 -14 4z"/>
    <path d="M6160 7791 c0 -6 4 -13 10 -16 6 -3 7 1 4 9 -7 18 -14 21 -14 7z"/>
    <path d="M5580 7786 c0 -2 7 -7 16 -10 8 -3 12 -2 9 4 -6 10 -25 14 -25 6z"/>
    <path d="M5915 7779 c-4 -6 -5 -12 -2 -15 2 -3 7 2 10 11 7 17 1 20 -8 4z"/>
    <path d="M5381 7764 c0 -11 3 -14 6 -6 3 7 2 16 -1 19 -3 4 -6 -2 -5 -13z"/>
    <path d="M5345 7760 c3 -5 8 -10 11 -10 2 0 4 5 4 10 0 6 -5 10 -11 10 -5 0
-7 -4 -4 -10z"/>
    <path d="M5847 7759 c7 -7 15 -10 18 -7 3 3 -2 9 -12 12 -14 6 -15 5 -6 -5z"/>
    <path d="M5010 7740 c0 -5 5 -10 11 -10 5 0 7 5 4 10 -3 6 -8 10 -11 10 -2 0
-4 -4 -4 -10z"/>
    <path d="M5310 7740 c0 -5 5 -10 11 -10 5 0 7 5 4 10 -3 6 -8 10 -11 10 -2 0
-4 -4 -4 -10z"/>
    <path d="M5596 7723 c-6 -14 -5 -15 5 -6 7 7 10 15 7 18 -3 3 -9 -2 -12 -12z"/>
    <path d="M5930 7728 c0 -4 4 -8 9 -8 6 0 12 4 15 8 3 5 -1 9 -9 9 -8 0 -15 -4
-15 -9z"/>
    <path d="M5959 7713 c-13 -16 -12 -17 4 -4 16 13 21 21 13 21 -2 0 -10 -8 -17
-17z"/>
    <path d="M5849 7697 c6 -8 7 -18 3 -22 -4 -5 -1 -5 6 -1 10 6 10 11 1 22 -6 8
-14 14 -16 14 -3 0 0 -6 6 -13z"/>
    <path d="M5035 7690 c-3 -5 -1 -10 4 -10 6 0 11 5 11 10 0 6 -2 10 -4 10 -3 0
-8 -4 -11 -10z"/>
    <path d="M5655 7680 c-3 -5 -1 -10 4 -10 6 0 11 5 11 10 0 6 -2 10 -4 10 -3 0
-8 -4 -11 -10z"/>
    <path d="M5686 7673 c-6 -14 -5 -15 5 -6 7 7 10 15 7 18 -3 3 -9 -2 -12 -12z"/>
    <path d="M5960 7656 c0 -2 7 -7 16 -10 8 -3 12 -2 9 4 -6 10 -25 14 -25 6z"/>
    <path d="M6095 7640 c-3 -6 1 -7 9 -4 18 7 21 14 7 14 -6 0 -13 -4 -16 -10z"/>
    <path d="M5359 7593 c-13 -16 -12 -17 4 -4 9 7 17 15 17 17 0 8 -8 3 -21 -13z"/>
    <path d="M5895 7600 c-3 -5 -1 -10 4 -10 6 0 11 5 11 10 0 6 -2 10 -4 10 -3 0
-8 -4 -11 -10z"/>
    <path d="M5045 7590 c-3 -5 -1 -10 4 -10 6 0 11 5 11 10 0 6 -2 10 -4 10 -3 0
-8 -4 -11 -10z"/>
    <path d="M5316 7588 c3 -5 10 -6 15 -3 13 9 11 12 -6 12 -8 0 -12 -4 -9 -9z"/>
    <path d="M5930 7589 c0 -5 5 -7 10 -4 6 3 10 8 10 11 0 2 -4 4 -10 4 -5 0 -10
-5 -10 -11z"/>
    <path d="M5508 7583 c6 -2 18 -2 25 0 6 3 1 5 -13 5 -14 0 -19 -2 -12 -5z"/>
    <path d="M4555 6360 c3 -5 8 -10 11 -10 2 0 4 5 4 10 0 6 -5 10 -11 10 -5 0
-7 -4 -4 -10z"/>
    <path d="M4590 6360 c0 -5 7 -7 15 -4 8 4 15 8 15 10 0 2 -7 4 -15 4 -8 0 -15
-4 -15 -10z"/>
    <path d="M4710 6366 c0 -2 8 -10 18 -17 15 -13 16 -12 3 4 -13 16 -21 21 -21
13z"/>
    <path d="M4746 6358 c3 -5 10 -6 15 -3 13 9 11 12 -6 12 -8 0 -12 -4 -9 -9z"/>
    <path d="M4805 6360 c-2 -4 7 -6 21 -4 35 3 41 12 9 12 -14 0 -27 -4 -30 -8z"/>
    <path d="M4877 6355 c3 -8 9 -12 14 -9 12 7 11 11 -5 17 -10 4 -13 1 -9 -8z"/>
    <path d="M5070 6366 c0 -2 7 -6 15 -10 8 -3 15 -1 15 4 0 6 -7 10 -15 10 -8 0
-15 -2 -15 -4z"/>
    <path d="M5155 6359 c6 -9 45 -8 45 2 0 4 -11 7 -25 7 -13 0 -22 -4 -20 -9z"/>
    <path d="M5248 6363 c7 -3 16 -2 19 1 4 3 -2 6 -13 5 -11 0 -14 -3 -6 -6z"/>
    <path d="M5490 6361 c0 -10 29 -36 34 -30 1 2 -6 12 -16 22 -10 9 -18 13 -18
8z"/>
    <path d="M5560 6359 c0 -5 5 -7 10 -4 6 3 10 8 10 11 0 2 -4 4 -10 4 -5 0 -10
-5 -10 -11z"/>
    <path d="M5600 6363 c6 -3 6 -11 0 -22 -6 -13 -5 -18 4 -18 16 0 14 40 -3 43
-6 1 -7 0 -1 -3z"/>
    <path d="M4640 6351 c0 -6 4 -13 10 -16 6 -3 7 1 4 9 -7 18 -14 21 -14 7z"/>
    <path d="M5320 6320 c1 -8 7 -24 15 -34 19 -25 19 -16 0 20 -8 16 -15 22 -15
14z"/>
    <path d="M5395 6320 c3 -5 8 -10 11 -10 2 0 4 5 4 10 0 6 -5 10 -11 10 -5 0
-7 -4 -4 -10z"/>
    <path d="M4999 6293 c-13 -16 -12 -17 4 -4 9 7 17 15 17 17 0 8 -8 3 -21 -13z"/>
    <path d="M5665 6301 c-3 -5 -1 -12 5 -16 5 -3 10 1 10 9 0 18 -6 21 -15 7z"/>
    <path d="M5100 6285 c-7 -9 -11 -17 -9 -20 3 -2 10 5 17 15 14 24 10 26 -8 5z"/>
    <path d="M5286 6287 c3 -10 9 -15 12 -12 3 3 0 11 -7 18 -10 9 -11 8 -5 -6z"/>
    <path d="M5556 6285 c-3 -8 -1 -15 4 -15 6 0 10 7 10 15 0 8 -2 15 -4 15 -2 0
-6 -7 -10 -15z"/>
    <path d="M5223 6273 c0 -9 4 -10 14 -2 7 6 13 12 13 14 0 1 -6 2 -13 2 -8 0
-14 -6 -14 -14z"/>
    <path d="M5492 6286 c2 -1 10 -7 19 -14 14 -10 18 -10 22 1 4 10 -2 15 -19 15
-14 0 -24 -1 -22 -2z"/>
    <path d="M5410 6276 c0 -2 7 -6 15 -10 8 -3 15 -1 15 4 0 6 -7 10 -15 10 -8 0
-15 -2 -15 -4z"/>
    <path d="M5465 6270 c3 -5 8 -10 11 -10 2 0 4 5 4 10 0 6 -5 10 -11 10 -5 0
-7 -4 -4 -10z"/>
    <path d="M4533 6243 c0 -15 2 -22 4 -15 3 6 10 9 16 5 7 -4 5 2 -3 13 -8 10
-15 20 -16 22 -1 2 -1 -10 -1 -25z"/>
    <path d="M5645 6260 c3 -5 8 -10 11 -10 2 0 4 5 4 10 0 6 -5 10 -11 10 -5 0
-7 -4 -4 -10z"/>
    <path d="M4586 6243 c-6 -14 -5 -15 5 -6 7 7 10 15 7 18 -3 3 -9 -2 -12 -12z"/>
    <path d="M4980 6249 c0 -5 5 -7 10 -4 6 3 10 8 10 11 0 2 -4 4 -10 4 -5 0 -10
-5 -10 -11z"/>
    <path d="M5613 6242 c1 -14 5 -18 11 -12 7 7 6 14 -1 21 -9 9 -12 7 -10 -9z"/>
    <path d="M5636 6223 c-6 -14 -5 -15 5 -6 7 7 10 15 7 18 -3 3 -9 -2 -12 -12z"/>
    <path d="M4800 6219 c0 -5 5 -7 10 -4 6 3 10 8 10 11 0 2 -4 4 -10 4 -5 0 -10
-5 -10 -11z"/>
    <path d="M4570 6216 c0 -2 7 -7 16 -10 8 -3 12 -2 9 4 -6 10 -25 14 -25 6z"/>
    <path d="M5145 6210 c-3 -6 1 -7 9 -4 18 7 21 14 7 14 -6 0 -13 -4 -16 -10z"/>
    <path d="M5344 6205 c1 -8 8 -21 16 -28 12 -10 12 -9 2 4 -6 9 -9 18 -6 21 3
3 1 9 -4 12 -6 3 -9 -1 -8 -9z"/>
    <path d="M5666 6207 c3 -10 9 -15 12 -12 3 3 0 11 -7 18 -10 9 -11 8 -5 -6z"/>
    <path d="M5190 6200 c-9 -6 -10 -10 -3 -10 6 0 15 5 18 10 8 12 4 12 -15 0z"/>
    <path d="M5375 6201 c-3 -5 -2 -12 3 -15 5 -3 9 1 9 9 0 17 -3 19 -12 6z"/>
    <path d="M5435 6200 c-3 -5 -1 -10 4 -10 6 0 11 5 11 10 0 6 -2 10 -4 10 -3 0
-8 -4 -11 -10z"/>
    <path d="M4700 6191 c0 -6 4 -13 10 -16 6 -3 7 1 4 9 -7 18 -14 21 -14 7z"/>
    <path d="M5155 6190 c-3 -5 -1 -10 4 -10 6 0 11 5 11 10 0 6 -2 10 -4 10 -3 0
-8 -4 -11 -10z"/>
    <path d="M4940 6170 c0 -5 5 -10 11 -10 5 0 7 5 4 10 -3 6 -8 10 -11 10 -2 0
-4 -4 -4 -10z"/>
    <path d="M5310 6167 c27 -15 36 -14 25 2 -3 6 -16 11 -28 11 -21 0 -21 -1 3
-13z"/>
    <path d="M5534 6166 c1 -8 5 -18 8 -22 4 -3 5 1 4 10 -1 8 -5 18 -8 22 -4 3
-5 -1 -4 -10z"/>
    <path d="M4976 6159 c3 -5 12 -9 21 -9 19 0 9 13 -12 16 -8 1 -13 -2 -9 -7z"/>
    <path d="M5160 6161 c0 -6 4 -13 10 -16 6 -3 7 1 4 9 -7 18 -14 21 -14 7z"/>
    <path d="M5560 6159 c0 -5 5 -7 10 -4 6 3 10 8 10 11 0 2 -4 4 -10 4 -5 0 -10
-5 -10 -11z"/>
    <path d="M4825 6150 c-3 -5 -1 -10 4 -10 6 0 11 5 11 10 0 6 -2 10 -4 10 -3 0
-8 -4 -11 -10z"/>
    <path d="M4906 6151 c-3 -5 1 -11 9 -14 9 -4 12 -1 8 9 -6 16 -10 17 -17 5z"/>
    <path d="M4530 6128 c0 -19 2 -20 10 -8 13 19 13 30 0 30 -5 0 -10 -10 -10
-22z"/>
    <path d="M4875 6140 c-3 -5 -1 -10 4 -10 6 0 11 5 11 10 0 6 -2 10 -4 10 -3 0
-8 -4 -11 -10z"/>
    <path d="M4780 6129 c0 -5 5 -7 10 -4 6 3 10 8 10 11 0 2 -4 4 -10 4 -5 0 -10
-5 -10 -11z"/>
    <path d="M5565 6129 c-11 -16 -1 -19 13 -3 7 8 8 14 3 14 -5 0 -13 -5 -16 -11z"/>
    <path d="M4665 6120 c-13 -6 -15 -9 -5 -9 8 0 22 4 30 9 18 12 2 12 -25 0z"/>
    <path d="M4990 6126 c0 -2 7 -9 15 -16 9 -7 15 -8 15 -2 0 5 -7 12 -15 16 -8
3 -15 4 -15 2z"/>
    <path d="M5486 6121 c-7 -11 42 -44 54 -36 6 3 10 12 10 18 0 8 -3 7 -9 -2 -7
-12 -12 -11 -30 1 -11 8 -18 18 -14 21 3 4 4 7 0 7 -3 0 -8 -4 -11 -9z"/>
    <path d="M4750 6109 c0 -5 5 -7 10 -4 6 3 10 8 10 11 0 2 -4 4 -10 4 -5 0 -10
-5 -10 -11z"/>
    <path d="M4918 6113 c7 -3 16 -2 19 1 4 3 -2 6 -13 5 -11 0 -14 -3 -6 -6z"/>
    <path d="M4585 6090 c-3 -5 -1 -10 4 -10 6 0 11 5 11 10 0 6 -2 10 -4 10 -3 0
-8 -4 -11 -10z"/>
    <path d="M4764 6084 c-18 -14 -18 -15 4 -4 12 6 22 13 22 15 0 8 -5 6 -26 -11z"/>
    <path d="M5082 6095 c4 -4 3 -14 -3 -22 -7 -8 -8 -13 -1 -13 15 0 23 28 9 36
-7 4 -9 4 -5 -1z"/>
    <path d="M5586 6083 c-6 -14 -5 -15 5 -6 7 7 10 15 7 18 -3 3 -9 -2 -12 -12z"/>
    <path d="M4707 6073 c3 -7 9 -13 14 -13 5 0 9 6 9 13 0 8 -6 14 -14 14 -8 0
-12 -6 -9 -14z"/>
    <path d="M4800 6086 c0 -2 8 -10 18 -17 15 -13 16 -12 3 4 -13 16 -21 21 -21
13z"/>
    <path d="M5220 6080 c0 -5 -7 -10 -15 -10 -8 0 -19 -10 -25 -22 -9 -20 -9 -21
2 -7 7 8 21 18 31 22 15 6 25 27 12 27 -3 0 -5 -4 -5 -10z"/>
    <path d="M4990 6071 c0 -6 4 -13 10 -16 6 -3 7 1 4 9 -7 18 -14 21 -14 7z"/>
    <path d="M5020 6076 c0 -4 7 -14 15 -22 8 -9 15 -11 15 -6 0 5 -7 15 -15 22
-8 7 -15 9 -15 6z"/>
    <path d="M5468 6068 c-4 -9 3 -14 21 -15 14 -1 19 1 11 4 -8 3 -18 10 -21 15
-3 5 -9 3 -11 -4z"/>
    <path d="M5105 6060 c-2 -3 5 -7 16 -7 10 -1 19 2 19 6 0 9 -29 10 -35 1z"/>
    <path d="M5672 6050 c0 -14 2 -19 5 -12 2 6 2 18 0 25 -3 6 -5 1 -5 -13z"/>
    <path d="M4627 6039 c4 -13 8 -18 11 -10 2 7 -1 18 -6 23 -8 8 -9 4 -5 -13z"/>
    <path d="M4729 6043 c-13 -16 -12 -17 4 -4 16 13 21 21 13 21 -2 0 -10 -8 -17
-17z"/>
    <path d="M4790 6056 c0 -2 7 -7 16 -10 8 -3 12 -2 9 4 -6 10 -25 14 -25 6z"/>
    <path d="M4890 6039 c0 -5 5 -7 10 -4 6 3 10 8 10 11 0 2 -4 4 -10 4 -5 0 -10
-5 -10 -11z"/>
    <path d="M5250 6040 c-9 -6 -10 -10 -3 -10 6 0 15 5 18 10 8 12 4 12 -15 0z"/>
    <path d="M5540 6040 c-23 -7 -23 -8 -3 -9 12 -1 25 4 28 9 3 6 5 10 3 9 -2 -1
-14 -5 -28 -9z"/>
    <path d="M5098 6033 c7 -3 16 -2 19 1 4 3 -2 6 -13 5 -11 0 -14 -3 -6 -6z"/>
    <path d="M5275 6030 c-3 -6 1 -7 9 -4 18 7 21 14 7 14 -6 0 -13 -4 -16 -10z"/>
    <path d="M5640 6031 c0 -6 4 -13 10 -16 6 -3 7 1 4 9 -7 18 -14 21 -14 7z"/>
    <path d="M4956 6022 c-2 -4 4 -8 14 -8 10 0 16 4 14 8 -3 4 -9 8 -14 8 -5 0
-11 -4 -14 -8z"/>
    <path d="M5568 6013 c7 -3 16 -2 19 1 4 3 -2 6 -13 5 -11 0 -14 -3 -6 -6z"/>
    <path d="M4556 6002 c-2 -4 4 -8 14 -8 10 0 16 4 14 8 -3 4 -9 8 -14 8 -5 0
-11 -4 -14 -8z"/>
    <path d="M5351 5994 c0 -11 3 -14 6 -6 3 7 2 16 -1 19 -3 4 -6 -2 -5 -13z"/>
    <path d="M4685 5990 c-3 -6 1 -7 9 -4 18 7 21 14 7 14 -6 0 -13 -4 -16 -10z"/>
    <path d="M4946 5988 c3 -5 10 -6 15 -3 13 9 11 12 -6 12 -8 0 -12 -4 -9 -9z"/>
    <path d="M4999 5983 c-13 -16 -12 -17 4 -4 16 13 21 21 13 21 -2 0 -10 -8 -17
-17z"/>
    <path d="M5026 5985 c-3 -8 -1 -15 4 -15 6 0 10 7 10 15 0 8 -2 15 -4 15 -2 0
-6 -7 -10 -15z"/>
    <path d="M5555 5990 c-3 -5 -1 -10 4 -10 6 0 11 5 11 10 0 6 -2 10 -4 10 -3 0
-8 -4 -11 -10z"/>
    <path d="M5061 5974 c0 -11 3 -14 6 -6 3 7 2 16 -1 19 -3 4 -6 -2 -5 -13z"/>
    <path d="M5282 5970 c0 -14 2 -19 5 -12 2 6 2 18 0 25 -3 6 -5 1 -5 -13z"/>
    <path d="M5515 5981 c-3 -5 -2 -12 3 -15 5 -3 9 1 9 9 0 17 -3 19 -12 6z"/>
    <path d="M5613 5975 c0 -8 4 -15 9 -15 4 0 8 7 8 15 0 8 -4 15 -8 15 -5 0 -9
-7 -9 -15z"/>
    <path d="M4530 5970 c0 -5 5 -10 11 -10 5 0 7 5 4 10 -3 6 -8 10 -11 10 -2 0
-4 -4 -4 -10z"/>
    <path d="M4575 5970 c-3 -6 1 -7 9 -4 18 7 21 14 7 14 -6 0 -13 -4 -16 -10z"/>
    <path d="M5080 5962 c0 -12 3 -12 15 -2 8 7 15 13 15 15 0 1 -7 2 -15 2 -8 0
-15 -7 -15 -15z"/>
    <path d="M5560 5966 c0 -2 8 -10 18 -17 15 -13 16 -12 3 4 -13 16 -21 21 -21
13z"/>
    <path d="M5645 5960 c3 -5 8 -10 11 -10 2 0 4 5 4 10 0 6 -5 10 -11 10 -5 0
-7 -4 -4 -10z"/>
    <path d="M5200 5955 c0 -2 7 -8 15 -15 12 -10 15 -10 15 2 0 8 -7 15 -15 15
-8 0 -15 -1 -15 -2z"/>
    <path d="M4746 5924 c-5 -14 -4 -15 9 -4 17 14 19 20 6 20 -5 0 -12 -7 -15
-16z"/>
    <path d="M5318 5933 c7 -3 16 -2 19 1 4 3 -2 6 -13 5 -11 0 -14 -3 -6 -6z"/>
    <path d="M5070 5919 c0 -5 5 -7 10 -4 6 3 10 8 10 11 0 2 -4 4 -10 4 -5 0 -10
-5 -10 -11z"/>
    <path d="M5368 5914 c17 -11 26 -12 39 -4 16 10 15 10 -4 5 -12 -3 -24 -1 -28
5 -3 5 -11 10 -18 10 -6 0 -1 -7 11 -16z"/>
    <path d="M4870 5904 c0 -8 5 -12 10 -9 6 4 8 11 5 16 -9 14 -15 11 -15 -7z"/>
    <path d="M5255 5910 c-3 -5 -1 -10 4 -10 6 0 11 5 11 10 0 6 -2 10 -4 10 -3 0
-8 -4 -11 -10z"/>
    <path d="M4532 5880 c0 -19 2 -27 5 -17 2 9 2 25 0 35 -3 9 -5 1 -5 -18z"/>
    <path d="M4786 5902 c-3 -5 1 -9 9 -9 8 0 12 4 9 9 -3 4 -7 8 -9 8 -2 0 -6 -4
-9 -8z"/>
    <path d="M5306 5902 c-3 -4 4 -9 15 -9 23 -2 25 3 4 10 -8 4 -16 3 -19 -1z"/>
    <path d="M5663 5895 c0 -8 4 -12 9 -9 4 3 8 9 8 15 0 5 -4 9 -8 9 -5 0 -9 -7
-9 -15z"/>
    <path d="M5595 5889 c-5 -8 -5 -11 0 -7 5 5 14 -1 22 -12 8 -11 24 -19 36 -19
20 1 20 2 2 6 -11 3 -27 14 -36 25 -13 17 -18 18 -24 7z"/>
    <path d="M5083 5878 c3 -9 1 -19 -6 -22 -9 -3 -9 -5 0 -5 18 -1 23 13 11 29
-8 12 -9 12 -5 -2z"/>
    <path d="M5177 5868 c-6 -17 29 -22 39 -6 5 7 2 8 -6 3 -7 -4 -15 -2 -20 5 -5
9 -8 8 -13 -2z"/>
    <path d="M5420 5876 c0 -2 7 -7 16 -10 8 -3 12 -2 9 4 -6 10 -25 14 -25 6z"/>
    <path d="M4780 5860 c-9 -6 -10 -10 -3 -10 6 0 15 5 18 10 8 12 4 12 -15 0z"/>
    <path d="M4885 5860 c-3 -5 -1 -10 4 -10 6 0 11 5 11 10 0 6 -2 10 -4 10 -3 0
-8 -4 -11 -10z"/>
    <path d="M5240 5860 c0 -5 5 -10 11 -10 5 0 7 5 4 10 -3 6 -8 10 -11 10 -2 0
-4 -4 -4 -10z"/>
    <path d="M5480 5866 c0 -2 7 -7 16 -10 8 -3 12 -2 9 4 -6 10 -25 14 -25 6z"/>
    <path d="M4938 5853 c7 -3 16 -2 19 1 4 3 -2 6 -13 5 -11 0 -14 -3 -6 -6z"/>
    <path d="M4988 5853 c7 -3 16 -2 19 1 4 3 -2 6 -13 5 -11 0 -14 -3 -6 -6z"/>
    <path d="M5338 5853 c6 -2 18 -2 25 0 6 3 1 5 -13 5 -14 0 -19 -2 -12 -5z"/>
    <path d="M4304 4636 c-3 -8 -4 -23 -2 -33 3 -11 6 -6 9 15 6 34 2 42 -7 18z"/>
    <path d="M4470 4635 c-11 -13 -10 -14 4 -9 9 3 16 10 16 15 0 13 -6 11 -20 -6z"/>
    <path d="M4675 4639 c-12 -18 3 -22 20 -5 14 14 14 16 1 16 -8 0 -18 -5 -21
-11z"/>
    <path d="M4993 4635 c0 -8 4 -12 9 -9 5 3 6 10 3 15 -9 13 -12 11 -12 -6z"/>
    <path d="M5249 4633 c-13 -16 -12 -17 4 -4 9 7 17 15 17 17 0 8 -8 3 -21 -13z"/>
    <path d="M5365 4640 c-3 -5 -1 -10 4 -10 6 0 11 5 11 10 0 6 -2 10 -4 10 -3 0
-8 -4 -11 -10z"/>
    <path d="M5025 4609 c-4 -6 -5 -12 -2 -15 2 -3 7 2 10 11 7 17 1 20 -8 4z"/>
    <path d="M5162 4595 c0 -16 2 -22 5 -12 2 9 2 23 0 30 -3 6 -5 -1 -5 -18z"/>
    <path d="M4945 4601 c-3 -5 -2 -12 3 -15 5 -3 9 1 9 9 0 17 -3 19 -12 6z"/>
    <path d="M4470 4571 c0 -6 4 -13 10 -16 6 -3 7 1 4 9 -7 18 -14 21 -14 7z"/>
    <path d="M4562 4569 c16 -11 45 -11 51 -1 3 4 -10 7 -29 8 -22 0 -30 -2 -22
-7z"/>
    <path d="M4706 4566 c10 -8 21 -12 24 -10 5 6 -21 24 -34 24 -6 0 -1 -6 10
-14z"/>
    <path d="M4747 4565 c-4 -8 -3 -16 1 -19 4 -3 9 4 9 15 2 23 -3 25 -10 4z"/>
    <path d="M4980 4576 c0 -2 7 -7 16 -10 8 -3 12 -2 9 4 -6 10 -25 14 -25 6z"/>
    <path d="M5340 4572 c0 -6 -8 -9 -17 -6 -15 5 -16 4 -3 -5 16 -11 40 3 27 16
-4 3 -7 1 -7 -5z"/>
    <path d="M4365 4560 c-4 -6 -11 -7 -17 -4 -7 4 -8 2 -4 -5 6 -9 11 -9 22 0 14
11 18 19 10 19 -3 0 -8 -5 -11 -10z"/>
    <path d="M4680 4549 c0 -5 5 -7 10 -4 6 3 10 8 10 11 0 2 -4 4 -10 4 -5 0 -10
-5 -10 -11z"/>
    <path d="M5369 4558 c-5 -10 -7 -59 -3 -55 6 6 13 57 8 57 -2 0 -5 -1 -5 -2z"/>
    <path d="M5030 4533 c0 -5 13 -17 28 -27 l27 -19 -24 26 c-26 28 -31 32 -31
20z"/>
    <path d="M5171 4524 c0 -11 3 -14 6 -6 3 7 2 16 -1 19 -3 4 -6 -2 -5 -13z"/>
    <path d="M4647 4511 c-4 -17 -3 -21 5 -13 5 5 8 16 6 23 -3 8 -7 3 -11 -10z"/>
    <path d="M5110 4521 c0 -6 4 -13 10 -16 6 -3 7 1 4 9 -7 18 -14 21 -14 7z"/>
    <path d="M5235 4520 c3 -5 8 -10 11 -10 2 0 4 5 4 10 0 6 -5 10 -11 10 -5 0
-7 -4 -4 -10z"/>
    <path d="M4438 4493 c6 -2 9 -10 6 -15 -4 -7 -2 -8 5 -4 13 9 5 26 -12 25 -9
0 -8 -2 1 -6z"/>
    <path d="M4775 4490 c-3 -5 -1 -10 4 -10 6 0 11 5 11 10 0 6 -2 10 -4 10 -3 0
-8 -4 -11 -10z"/>
    <path d="M5035 4491 c-3 -5 -2 -12 3 -15 5 -3 9 1 9 9 0 17 -3 19 -12 6z"/>
    <path d="M5200 4484 c0 -8 5 -12 10 -9 6 4 8 11 5 16 -9 14 -15 11 -15 -7z"/>
    <path d="M4501 4474 c0 -11 3 -14 6 -6 3 7 2 16 -1 19 -3 4 -6 -2 -5 -13z"/>
    <path d="M4996 4477 c3 -10 9 -15 12 -12 3 3 0 11 -7 18 -10 9 -11 8 -5 -6z"/>
    <path d="M4556 4472 c-2 -4 -1 -14 4 -22 7 -11 9 -9 7 8 -1 24 -3 26 -11 14z"/>
    <path d="M4585 4469 c-4 -6 -5 -12 -2 -15 2 -3 7 2 10 11 7 17 1 20 -8 4z"/>
    <path d="M4950 4476 c0 -3 9 -10 20 -16 11 -6 20 -8 20 -6 0 3 -9 10 -20 16
-11 6 -20 8 -20 6z"/>
    <path d="M4456 4453 c-6 -14 -5 -15 5 -6 7 7 10 15 7 18 -3 3 -9 -2 -12 -12z"/>
    <path d="M4630 4460 c0 -5 5 -10 11 -10 5 0 7 5 4 10 -3 6 -8 10 -11 10 -2 0
-4 -4 -4 -10z"/>
    <path d="M4825 4459 c-4 -6 -5 -12 -2 -15 2 -3 7 2 10 11 7 17 1 20 -8 4z"/>
    <path d="M5117 4463 c-3 -4 7 -17 22 -27 l26 -20 -20 25 c-11 13 -21 25 -21
27 -1 2 -4 0 -7 -5z"/>
    <path d="M5170 4450 c-9 -6 -10 -10 -3 -10 6 0 15 5 18 10 8 12 4 12 -15 0z"/>
    <path d="M4386 4408 c3 -5 10 -6 15 -3 13 9 11 12 -6 12 -8 0 -12 -4 -9 -9z"/>
    <path d="M5070 4406 c0 -8 4 -17 9 -20 5 -4 7 3 4 14 -6 23 -13 26 -13 6z"/>
    <path d="M4695 4369 c-4 -6 -5 -12 -2 -15 2 -3 7 2 10 11 7 17 1 20 -8 4z"/>
    <path d="M5319 4363 c-12 -16 -12 -17 2 -6 9 7 20 9 24 5 5 -4 5 -1 1 6 -9 16
-11 15 -27 -5z"/>
    <path d="M4320 4366 c0 -2 8 -10 18 -17 15 -13 16 -12 3 4 -13 16 -21 21 -21
13z"/>
    <path d="M4767 4358 c2 -5 13 -8 23 -8 10 0 21 3 23 8 3 4 -8 7 -23 7 -15 0
-26 -3 -23 -7z"/>
    <path d="M4300 4347 c0 -10 8 -17 18 -17 9 0 13 4 7 8 -5 4 -13 11 -17 16 -5
5 -8 2 -8 -7z"/>
    <path d="M4925 4340 c3 -5 8 -10 11 -10 2 0 4 5 4 10 0 6 -5 10 -11 10 -5 0
-7 -4 -4 -10z"/>
    <path d="M4950 4341 c0 -6 4 -13 10 -16 6 -3 7 1 4 9 -7 18 -14 21 -14 7z"/>
    <path d="M4440 4330 c8 -5 20 -10 25 -10 6 0 3 5 -5 10 -8 5 -19 10 -25 10 -5
0 -3 -5 5 -10z"/>
    <path d="M4668 4333 c6 -2 18 -2 25 0 6 3 1 5 -13 5 -14 0 -19 -2 -12 -5z"/>
    <path d="M5310 4330 c-9 -6 -10 -10 -3 -10 6 0 15 5 18 10 8 12 4 12 -15 0z"/>
    <path d="M4876 4305 c-11 -8 -15 -15 -9 -15 6 0 16 7 23 15 16 19 11 19 -14 0z"/>
    <path d="M4686 4294 c-8 -22 -4 -25 11 -9 7 8 9 16 4 19 -5 3 -12 -1 -15 -10z"/>
    <path d="M4737 4255 c3 -8 9 -12 14 -9 12 7 11 11 -5 17 -10 4 -13 1 -9 -8z"/>
    <path d="M4950 4266 c0 -2 7 -6 15 -10 8 -3 15 -1 15 4 0 6 -7 10 -15 10 -8 0
-15 -2 -15 -4z"/>
    <path d="M5167 4259 c7 -7 15 -10 18 -7 3 3 -2 9 -12 12 -14 6 -15 5 -6 -5z"/>
    <path d="M4650 4250 c-9 -6 -10 -10 -3 -10 6 0 15 5 18 10 8 12 4 12 -15 0z"/>
    <path d="M5205 4250 c-3 -6 1 -7 9 -4 18 7 21 14 7 14 -6 0 -13 -4 -16 -10z"/>
    <path d="M4610 4239 c0 -5 5 -7 10 -4 6 3 10 8 10 11 0 2 -4 4 -10 4 -5 0 -10
-5 -10 -11z"/>
    <path d="M4680 4240 c0 -5 5 -10 11 -10 5 0 7 5 4 10 -3 6 -8 10 -11 10 -2 0
-4 -4 -4 -10z"/>
    <path d="M4991 4238 c-1 -21 15 -32 25 -17 4 7 3 9 -4 5 -6 -3 -13 2 -15 11
-4 16 -5 16 -6 1z"/>
    <path d="M5141 4234 c0 -11 3 -14 6 -6 3 7 2 16 -1 19 -3 4 -6 -2 -5 -13z"/>
    <path d="M4960 4231 c0 -6 4 -13 10 -16 6 -3 7 1 4 9 -7 18 -14 21 -14 7z"/>
    <path d="M4305 4219 c-4 -6 -5 -12 -2 -15 2 -3 7 2 10 11 7 17 1 20 -8 4z"/>
    <path d="M4405 4220 c-3 -6 1 -7 9 -4 18 7 21 14 7 14 -6 0 -13 -4 -16 -10z"/>
    <path d="M4435 4210 c-3 -6 1 -7 9 -4 18 7 21 14 7 14 -6 0 -13 -4 -16 -10z"/>
    <path d="M4500 4216 c0 -2 7 -7 16 -10 8 -3 12 -2 9 4 -6 10 -25 14 -25 6z"/>
    <path d="M5130 4200 c0 -5 5 -10 11 -10 5 0 7 5 4 10 -3 6 -8 10 -11 10 -2 0
-4 -4 -4 -10z"/>
    <path d="M4443 4175 c0 -8 4 -12 9 -9 5 3 6 10 3 15 -9 13 -12 11 -12 -6z"/>
    <path d="M4480 4180 c-8 -5 -12 -12 -9 -15 4 -3 12 1 19 10 14 17 11 19 -10 5z"/>
    <path d="M5065 4180 c-3 -5 -1 -10 4 -10 6 0 11 5 11 10 0 6 -2 10 -4 10 -3 0
-8 -4 -11 -10z"/>
    <path d="M5185 4170 c10 -11 20 -20 23 -20 3 0 -3 9 -13 20 -10 11 -20 20 -23
20 -3 0 3 -9 13 -20z"/>
    <path d="M5341 4174 c0 -11 3 -14 6 -6 3 7 2 16 -1 19 -3 4 -6 -2 -5 -13z"/>
    <path d="M4739 4143 c-13 -16 -12 -17 4 -4 16 13 21 21 13 21 -2 0 -10 -8 -17
-17z"/>
    <path d="M5386 4147 c3 -10 9 -15 12 -12 3 3 0 11 -7 18 -10 9 -11 8 -5 -6z"/>
    <path d="M4545 4140 c-16 -6 -13 -8 13 -7 17 0 32 1 32 2 0 8 -28 11 -45 5z"/>
    <path d="M5045 4140 c-19 -8 -19 -9 3 -9 12 -1 22 4 22 9 0 6 -1 10 -2 9 -2 0
-12 -4 -23 -9z"/>
    <path d="M8557 3253 c-4 -3 -7 -98 -7 -210 0 -111 -4 -203 -8 -203 -5 0 -17
10 -28 21 -50 57 -178 82 -284 55 -73 -19 -117 -45 -173 -102 -117 -120 -150
-361 -73 -531 31 -66 102 -142 160 -171 130 -65 295 -44 394 51 l32 31 0 -41
c0 -23 4 -45 10 -48 5 -3 48 -9 95 -12 64 -5 88 -3 101 8 16 13 17 56 10 578
-4 311 -9 568 -12 573 -6 10 -208 11 -217 1z m-131 -518 c49 -14 99 -56 123
-102 6 -12 11 -73 11 -142 l0 -121 -36 -39 c-89 -99 -239 -91 -322 17 -25 32
-27 44 -30 137 -3 87 -1 108 17 142 24 48 81 101 119 109 15 3 32 7 37 9 19 6
32 5 81 -10z"/>
    <path d="M1925 3205 c-285 -53 -465 -270 -465 -560 0 -166 55 -303 166 -411
112 -109 233 -157 399 -158 119 -1 186 14 280 63 227 117 344 398 275 665 -26
104 -63 168 -140 247 -80 81 -180 134 -295 154 -96 17 -128 17 -220 0z m247
-224 c115 -55 179 -160 186 -301 9 -183 -54 -306 -188 -369 -79 -37 -201 -37
-280 0 -70 33 -126 89 -159 159 -24 50 -26 66 -26 175 0 103 3 127 22 168 40
87 108 150 193 181 64 23 190 17 252 -13z"/>
    <path d="M5618 3073 c-9 -367 -8 -944 2 -963 10 -18 21 -20 103 -20 59 0 97 4
105 12 9 9 12 107 12 380 0 202 4 368 8 368 5 0 16 -17 24 -37 8 -21 68 -161
133 -310 l118 -273 98 0 c97 0 99 0 113 28 18 36 153 350 207 482 23 58 46
109 51 114 4 6 8 -96 8 -225 1 -248 8 -505 15 -527 4 -9 31 -12 107 -10 l103
3 4 30 c2 17 0 265 -4 553 l-7 523 -150 -3 -149 -3 -103 -255 c-57 -140 -121
-299 -143 -353 -21 -54 -43 -99 -48 -100 -5 -1 -69 144 -142 323 -73 179 -139
340 -148 358 l-15 32 -149 0 -150 0 -3 -127z"/>
    <path d="M3135 2917 c-63 -17 -103 -38 -134 -71 -35 -37 -49 -33 -53 17 l-3
42 -89 3 c-49 2 -93 -1 -98 -6 -4 -4 -11 -254 -15 -554 -5 -439 -4 -550 7
-563 9 -11 33 -15 99 -15 47 0 91 4 97 8 8 4 14 73 19 195 4 103 11 187 15
187 4 0 15 -9 24 -19 35 -38 114 -63 201 -63 142 -1 243 51 314 162 56 86 74
164 69 291 -3 91 -7 112 -35 171 -17 37 -50 87 -73 112 -83 90 -227 133 -345
103z m120 -194 c40 -20 74 -52 91 -86 21 -40 28 -143 14 -210 -37 -180 -254
-226 -367 -78 -32 42 -33 45 -33 146 0 99 1 104 33 151 63 94 167 125 262 77z"/>
    <path d="M4032 2919 c-123 -21 -240 -110 -295 -227 -31 -64 -32 -72 -32 -192
0 -152 19 -210 96 -295 115 -125 318 -164 502 -95 69 26 157 93 157 119 0 21
-48 66 -96 88 -30 15 -33 14 -73 -15 -73 -53 -178 -63 -256 -24 -62 30 -105
86 -105 137 0 25 1 25 88 26 223 1 478 11 486 19 16 15 -12 199 -38 257 -51
111 -149 182 -276 203 -73 11 -84 11 -158 -1z m145 -164 c21 -9 46 -23 57 -33
23 -21 55 -89 56 -119 l0 -23 -180 0 c-205 0 -204 0 -175 76 35 93 147 138
242 99z"/>
    <path d="M5024 2913 c-28 -8 -74 -32 -103 -54 -28 -21 -53 -39 -56 -39 -2 0
-5 19 -7 43 l-3 42 -105 0 -105 0 0 -405 0 -405 100 -3 c85 -2 102 0 112 15
10 12 13 83 13 276 l0 259 38 38 c73 73 184 75 253 4 l34 -35 5 -277 5 -277
94 -3 c62 -2 98 1 108 9 12 11 14 58 11 308 -5 342 -9 363 -88 442 -75 75
-187 97 -306 62z"/>
    <path d="M7325 2920 c-159 -34 -277 -130 -327 -267 -17 -45 -22 -81 -22 -158
-1 -92 2 -106 31 -167 89 -190 290 -287 501 -242 92 19 149 50 215 115 82 83
110 148 115 271 7 163 -44 280 -161 369 -87 65 -248 102 -352 79z m176 -197
c77 -40 112 -100 118 -201 4 -91 -9 -140 -52 -189 -58 -66 -162 -92 -240 -59
-143 59 -181 287 -69 407 67 72 154 86 243 42z"/>
  </g>
</svg>
